<svg width="51" height="46" viewBox="0 0 51 46" fill="none" xmlns="http://www.w3.org/2000/svg">
<path d="M16.7393 0L5.58335 0.0107989L13.0439 5.6424L16.7393 5.60461C25.943 5.60461 33.4357 13.1422 33.4357 22.413C33.4357 31.6838 25.9484 39.2214 16.7393 39.2214L5.56726 39.2322V11.2416L29.0055 28.9949C29.9334 27.2509 30.4912 25.2801 30.6038 23.1905L0 0.0107989V39.2322V44.8476H5.57262V44.8368L16.7447 44.8206C29.0216 44.8206 39.0083 34.7669 39.0083 22.4076C39.0083 10.0483 29.0162 0 16.7393 0Z" fill="black"/>
<path d="M44.5863 0.0215759V33.7734L40.4135 30.6147C39.786 32.4343 38.9654 34.1622 37.9624 35.7712L50.1535 45.0042V0.0215759H44.5863Z" fill="black"/>
</svg>
