<?xml version="1.0" encoding="UTF-8"?>
<svg viewBox="0 0 93.51 83.36" xmlns="http://www.w3.org/2000/svg">
<defs>
<style>.cls-1{fill:#FFFFFF;}</style>
</defs>
<path class="cls-1" d="m31.21,0L10.41.02l13.91,10.43,6.89-.07c17.16,0,31.13,13.96,31.13,31.13s-13.96,31.13-31.13,31.13l-20.83.02V20.82l43.7,32.88c1.73-3.23,2.77-6.88,2.98-10.75L0,.02v72.64h0v10.4h10.39v-.02l20.83-.03c22.89,0,41.51-18.62,41.51-41.51S54.1,0,31.21,0Z"/>
<path class="cls-1" d="m83.13.04v62.51l-7.78-5.85c-1.17,3.37-2.7,6.57-4.57,9.55l22.73,17.1V.04h-10.38Z"/>
</svg>
