<svg width="1080" height="1080" viewBox="0 0 1080 1080" fill="none" xmlns="http://www.w3.org/2000/svg">
<rect width="1080" height="1080" fill="white"/>
<path d="M395.374 148L201.187 148.188L331.049 246.294L395.374 245.636C555.578 245.636 686 376.945 686 538.448C686 699.951 555.671 831.261 395.374 831.261L200.907 831.449V343.835L608.886 653.109C625.037 622.727 634.746 588.395 636.707 551.993L104 148.188V831.449V929.272H201V929.084L395.467 928.802C609.166 928.802 783 753.66 783 538.354C783 323.048 609.073 148 395.374 148Z" fill="black"/>
<path d="M880.093 148.376V736.353L807.46 681.327C796.537 713.026 782.253 743.125 764.795 771.155L977 932V148.376H880.093Z" fill="black"/>
</svg>
